<?xml version="1.0" encoding="UTF-8"?>
<!DOCTYPE svg PUBLIC "-//W3C//DTD SVG 1.1//EN" "http://www.w3.org/Graphics/SVG/1.1/DTD/svg11.dtd">
<svg xmlns="http://www.w3.org/2000/svg" version="1.1" width="1652px" height="1652px" style="shape-rendering:geometricPrecision; text-rendering:geometricPrecision; image-rendering:optimizeQuality; fill-rule:evenodd; clip-rule:evenodd" xmlns:xlink="http://www.w3.org/1999/xlink">
<g><path style="opacity:1" fill="#fefefe" d="M -0.5,-0.5 C 550.167,-0.5 1100.83,-0.5 1651.5,-0.5C 1651.5,550.167 1651.5,1100.83 1651.5,1651.5C 1100.83,1651.5 550.167,1651.5 -0.5,1651.5C -0.5,1100.83 -0.5,550.167 -0.5,-0.5 Z"/></g>
<g><path style="opacity:1" fill="#bf872c" d="M 143.5,2.5 C 598.5,2.33333 1053.5,2.5 1508.5,3C 1512.06,4.89172 1514.56,7.72506 1516,11.5C 1523.25,145.399 1527.59,279.399 1529,413.5C 1529.67,504.5 1529.67,595.5 1529,686.5C 1528.05,790.298 1520.72,893.631 1507,996.5C 1495.27,1081.54 1472.27,1163.21 1438,1241.5C 1405,1310.27 1358.5,1368.44 1298.5,1416C 1258.4,1446.89 1216.73,1475.56 1173.5,1502C 1114.73,1538.39 1054.06,1571.73 991.5,1602C 957.157,1618.56 921.49,1631.56 884.5,1641C 840.529,1650.52 796.863,1649.52 753.5,1638C 701.559,1621.5 651.559,1600.16 603.5,1574C 527.016,1533.27 453.35,1488.27 382.5,1439C 343.599,1410.44 308.099,1377.94 276,1341.5C 231.957,1286.09 199.957,1224.09 180,1155.5C 156.378,1076.77 141.045,996.439 134,914.5C 128.266,852.623 124.599,790.623 123,728.5C 118.62,489.351 122.62,250.351 135,11.5C 137.362,7.97345 140.196,4.97345 143.5,2.5 Z"/></g>
<g><path style="opacity:1" fill="#eee1cc" d="M 1487.5,34.5 C 1046.83,34.5 606.167,34.5 165.5,34.5C 165.81,37.7131 165.477,40.7131 164.5,43.5C 164.5,40.1667 164.5,36.8333 164.5,33.5C 605.667,33.1668 1046.67,33.5001 1487.5,34.5 Z"/></g>
<g><path style="opacity:1" fill="#fefefe" d="M 1487.5,34.5 C 1496.79,254.072 1500.29,473.739 1498,693.5C 1496.54,769.999 1492.2,846.333 1485,922.5C 1477.24,1008.3 1459.91,1091.96 1433,1173.5C 1406,1254.52 1360.17,1323.02 1295.5,1379C 1259.11,1409.36 1220.78,1437.03 1180.5,1462C 1118.24,1501.31 1053.9,1537.31 987.5,1570C 959.291,1583.6 930.291,1595.27 900.5,1605C 863.871,1617.13 826.538,1620.13 788.5,1614C 746.834,1604.59 706.834,1590.59 668.5,1572C 581.825,1529.18 498.825,1480.85 419.5,1427C 379.133,1399.52 342.3,1367.69 309,1331.5C 269.234,1284 239.234,1230.67 219,1171.5C 195.114,1101.95 179.114,1030.62 171,957.5C 162.904,887.393 157.904,817.06 156,746.5C 152.501,594.826 152.834,443.159 157,291.5C 159.103,208.819 161.603,126.152 164.5,43.5C 165.477,40.7131 165.81,37.7131 165.5,34.5C 606.167,34.5 1046.83,34.5 1487.5,34.5 Z"/></g>
<g><path style="opacity:1" fill="#bf872c" d="M 1233.5,230.5 C 1233.79,232.735 1233.46,234.735 1232.5,236.5C 1222.45,226.115 1211.78,216.448 1200.5,207.5C 1199.83,207.667 1199.17,207.833 1198.5,208C 1188.94,217.729 1179.27,227.229 1169.5,236.5C 1168.55,235.081 1168.22,233.415 1168.5,231.5C 1169.07,218.162 1169.74,204.828 1170.5,191.5C 1155.48,189.552 1140.48,187.385 1125.5,185C 1138.17,176 1150.83,167 1163.5,158C 1155.83,145 1148.17,132 1140.5,119C 1155.23,122.747 1169.9,126.747 1184.5,131C 1189.98,117.228 1195.48,103.395 1201,89.5C 1206.74,103.541 1212.57,117.541 1218.5,131.5C 1232.78,126.792 1247.11,122.625 1261.5,119C 1253.78,131.617 1246.44,144.451 1239.5,157.5C 1239.61,158.442 1239.94,159.275 1240.5,160C 1252.64,167.98 1264.64,176.146 1276.5,184.5C 1261.54,187.113 1246.54,189.447 1231.5,191.5C 1232.02,204.508 1232.69,217.508 1233.5,230.5 Z"/></g>
<g><path style="opacity:1" fill="#debf93" d="M 1168.5,231.5 C 1168.22,233.415 1168.55,235.081 1169.5,236.5C 1169.44,237.043 1169.11,237.376 1168.5,237.5C 1167.21,235.364 1167.21,233.364 1168.5,231.5 Z"/></g>
<g><path style="opacity:1" fill="#d7b27d" d="M 1233.5,230.5 C 1234.63,232.966 1234.8,235.633 1234,238.5C 1233.28,237.956 1232.78,237.289 1232.5,236.5C 1233.46,234.735 1233.79,232.735 1233.5,230.5 Z"/></g>
<g><path style="opacity:1" fill="#bf872c" d="M 973.5,387.5 C 972.532,385.393 972.198,383.059 972.5,380.5C 973.024,368.158 973.691,355.825 974.5,343.5C 959.49,341.475 944.49,339.308 929.5,337C 940.56,328.942 951.893,321.275 963.5,314C 964.899,312.938 965.899,311.605 966.5,310C 959.3,297.101 951.967,284.268 944.5,271.5C 958.53,275.498 972.863,279.832 987.5,284.5C 994.128,270.478 1000.29,256.145 1006,241.5C 1011.41,255.975 1017.07,270.309 1023,284.5C 1036.64,280.172 1050.3,275.839 1064,271.5C 1064.5,271.833 1065,272.167 1065.5,272.5C 1058.17,285.167 1050.83,297.833 1043.5,310.5C 1055.95,319.567 1068.62,328.4 1081.5,337C 1066.08,338.869 1050.75,341.203 1035.5,344C 1036.83,359.154 1038,374.32 1039,389.5C 1027.67,378.833 1016.33,368.167 1005,357.5C 994.302,367.367 983.802,377.367 973.5,387.5 Z"/></g>
<g><path style="opacity:1" fill="#bf872c" d="M 1335.5,374.5 C 1336.48,371.375 1336.81,368.042 1336.5,364.5C 1335.5,364.5 1334.5,364.5 1333.5,364.5C 1319.3,363.115 1305.3,360.949 1291.5,358C 1303.97,349.695 1316.3,341.195 1328.5,332.5C 1321.17,319.833 1313.83,307.167 1306.5,294.5C 1307.72,293.386 1309.06,293.219 1310.5,294C 1322.17,297.667 1333.83,301.333 1345.5,305C 1347.26,305.798 1348.93,305.631 1350.5,304.5C 1355.75,290.746 1361.25,277.08 1367,263.5C 1372.54,275.913 1377.54,288.579 1382,301.5C 1382.52,303.223 1383.52,304.556 1385,305.5C 1399.34,300.884 1413.5,296.884 1427.5,293.5C 1419.58,306.335 1411.91,319.335 1404.5,332.5C 1416.83,341 1429.17,349.5 1441.5,358C 1426.97,360.956 1412.31,363.123 1397.5,364.5C 1398.34,380.194 1399.17,395.86 1400,411.5C 1388.98,400.983 1377.82,390.649 1366.5,380.5C 1355.52,390.316 1344.68,400.316 1334,410.5C 1333.79,398.478 1334.29,386.478 1335.5,374.5 Z"/></g>
<g><path style="opacity:1" fill="#bf872c" d="M 1217.5,352.5 C 1218.5,352.47 1219.16,352.97 1219.5,354C 1224.07,367.205 1228.73,380.371 1233.5,393.5C 1248.16,394.333 1262.82,394.833 1277.5,395C 1266.5,403.5 1255.5,412 1244.5,420.5C 1243.36,422.421 1243.19,424.421 1244,426.5C 1248.18,439.028 1251.52,451.695 1254,464.5C 1242.09,455.796 1229.93,447.463 1217.5,439.5C 1205.66,447.588 1193.99,455.921 1182.5,464.5C 1182.17,464 1181.83,463.5 1181.5,463C 1185.71,449.598 1190.04,436.264 1194.5,423C 1183.01,413.758 1171.35,404.758 1159.5,396C 1174.43,394.539 1189.43,393.706 1204.5,393.5C 1208.18,381.303 1212.34,369.303 1217,357.5C 1217.49,355.866 1217.66,354.199 1217.5,352.5 Z"/></g>
<g><path style="opacity:1" fill="#e0c297" d="M 1333.5,364.5 C 1334.5,364.5 1335.5,364.5 1336.5,364.5C 1336.81,368.042 1336.48,371.375 1335.5,374.5C 1335.94,370.821 1335.27,367.488 1333.5,364.5 Z"/></g>
<g><path style="opacity:1" fill="#d9b582" d="M 972.5,380.5 C 972.198,383.059 972.532,385.393 973.5,387.5C 973.217,388.289 972.717,388.956 972,389.5C 971.195,386.304 971.362,383.304 972.5,380.5 Z"/></g>
<g><path style="opacity:1" fill="#bf872c" d="M 1180.5,518.5 C 1186.74,532.691 1192.91,547.025 1199,561.5C 1213.11,556.507 1227.28,552.507 1241.5,549.5C 1234.18,562.161 1226.84,574.828 1219.5,587.5C 1231.95,596.567 1244.62,605.4 1257.5,614C 1242.48,616.122 1227.48,618.289 1212.5,620.5C 1212.65,635.23 1213.65,649.896 1215.5,664.5C 1215.17,665.167 1214.83,665.833 1214.5,666.5C 1203.18,656.351 1192.02,646.017 1181,635.5C 1169.99,645.679 1159.16,656.012 1148.5,666.5C 1148.17,665.5 1147.83,664.5 1147.5,663.5C 1148.93,649.196 1149.93,634.863 1150.5,620.5C 1135.46,618.661 1120.46,616.494 1105.5,614C 1118.26,605.633 1130.59,596.799 1142.5,587.5C 1135.56,574.46 1128.23,561.627 1120.5,549C 1135.17,553 1149.83,557 1164.5,561C 1170.34,546.964 1175.68,532.797 1180.5,518.5 Z"/></g>
<g><path style="opacity:1" fill="#bf872b" d="M 814.5,592.5 C 827.123,591.647 839.456,593.147 851.5,597C 872.002,603.724 892.335,611.057 912.5,619C 1013.49,664.995 1113.82,712.328 1213.5,761C 1273.31,788.237 1332.64,816.57 1391.5,846C 1405.08,853.245 1417.25,862.411 1428,873.5C 1437.61,887.031 1437.78,900.531 1428.5,914C 1426.11,915.861 1423.45,917.194 1420.5,918C 1410.69,919.073 1401.03,918.406 1391.5,916C 1228.6,863.583 1064.93,814.249 900.5,768C 875.166,761.397 849.666,755.897 824,751.5C 809.987,752.969 796.154,755.469 782.5,759C 685.518,784.772 589.185,812.772 493.5,843C 417.5,867 341.5,891 265.5,915C 253.126,918.988 240.793,919.321 228.5,916C 223.449,913.28 220.282,909.113 219,903.5C 217.069,893.454 218.735,884.121 224,875.5C 228.833,869.333 234.333,863.833 240.5,859C 251.237,851.936 262.237,845.269 273.5,839C 419.107,770.196 564.44,700.863 709.5,631C 731.489,620.839 753.822,611.505 776.5,603C 789.045,598.534 801.712,595.034 814.5,592.5 Z"/></g>
<g><path style="opacity:1" fill="#bf872b" d="M 822.5,843.5 C 831.946,844.636 841.279,846.47 850.5,849C 983.942,885.587 1116.61,925.254 1248.5,968C 1225.2,978.984 1201.86,989.984 1178.5,1001C 1144.92,1016.9 1109.59,1023.9 1072.5,1022C 1053.03,1020.11 1034.36,1015.44 1016.5,1008C 983.13,992.482 950.13,976.148 917.5,959C 861.428,931.549 804.761,930.549 747.5,956C 717.221,970.473 687.221,985.473 657.5,1001C 628.631,1015.18 598.131,1023.01 566,1024.5C 551.951,1024.06 538.117,1022.23 524.5,1019C 510.016,1014.39 495.683,1009.39 481.5,1004C 456.906,991.703 432.239,979.37 407.5,967C 527.28,928.518 647.614,891.851 768.5,857C 786.553,852.153 804.553,847.653 822.5,843.5 Z"/></g>
<g><path style="opacity:1" fill="#bf872b" d="M 809.5,1027.5 C 835.238,1025.51 860.238,1028.68 884.5,1037C 893.687,1040.84 903.02,1044.51 912.5,1048C 937.126,1060.65 961.793,1073.31 986.5,1086C 1005.51,1095.35 1025.17,1102.68 1045.5,1108C 1084.46,1116.03 1122.46,1112.7 1159.5,1098C 1194.01,1083.41 1228.01,1067.74 1261.5,1051C 1277.68,1043.94 1294.35,1038.27 1311.5,1034C 1345.63,1027.85 1378.97,1030.68 1411.5,1042.5C 1411.83,1043.67 1412.17,1044.83 1412.5,1046C 1406.74,1073.36 1399.74,1100.36 1391.5,1127C 1375.82,1124.42 1359.99,1122.92 1344,1122.5C 1329.91,1122.41 1316.08,1124.24 1302.5,1128C 1287.54,1132.54 1272.87,1137.88 1258.5,1144C 1231.2,1156.98 1203.86,1169.98 1176.5,1183C 1147.46,1196.38 1116.96,1203.55 1085,1204.5C 1069.2,1204.29 1053.7,1202.12 1038.5,1198C 1028.16,1194.33 1017.82,1190.66 1007.5,1187C 979.74,1173.29 952.073,1159.29 924.5,1145C 903.188,1134.35 880.855,1126.69 857.5,1122C 825.316,1116.21 793.982,1119.21 763.5,1131C 753.752,1134.8 744.086,1138.8 734.5,1143C 707.656,1156.92 680.656,1170.59 653.5,1184C 625.216,1197.65 595.383,1205.15 564,1206.5C 553.078,1206.13 542.244,1204.96 531.5,1203C 508.364,1196.92 486.031,1188.92 464.5,1179C 442.989,1167.74 421.323,1156.74 399.5,1146C 377.284,1135.41 353.951,1128.08 329.5,1124C 314.867,1122.48 300.2,1122.15 285.5,1123C 277.475,1123.7 269.642,1125.2 262,1127.5C 253.106,1099.59 245.606,1071.26 239.5,1042.5C 272.648,1029.91 306.648,1027.07 341.5,1034C 353.609,1037.48 365.609,1041.15 377.5,1045C 409.502,1059.5 441.169,1074.83 472.5,1091C 501.365,1105.06 531.865,1112.9 564,1114.5C 595.384,1113.2 625.217,1105.7 653.5,1092C 683.531,1076.98 713.531,1061.98 743.5,1047C 764.807,1037.73 786.807,1031.23 809.5,1027.5 Z"/></g>
<g><path style="opacity:1" fill="#bf872b" d="M 1341.5,1213.5 C 1346.17,1214.17 1350.83,1214.83 1355.5,1215.5C 1337.2,1251.59 1313.87,1284.09 1285.5,1313C 1243.77,1334.37 1201.44,1354.37 1158.5,1373C 1119.6,1387.82 1079.93,1390.49 1039.5,1381C 1024.88,1376.43 1010.55,1371.1 996.5,1365C 961.752,1345.79 926.085,1328.46 889.5,1313C 846.277,1297.41 803.277,1298.08 760.5,1315C 746.585,1320.42 732.918,1326.42 719.5,1333C 696.936,1345.45 673.936,1357.12 650.5,1368C 594.197,1394.89 537.863,1395.22 481.5,1369C 443.752,1350.96 406.085,1332.63 368.5,1314C 338.543,1284.75 314.21,1251.41 295.5,1214C 316.332,1212.02 336.665,1214.36 356.5,1221C 371.514,1225.67 386.181,1231.34 400.5,1238C 432.935,1255.05 465.935,1270.72 499.5,1285C 519.942,1291.96 540.942,1296.13 562.5,1297.5C 595.935,1296.19 627.602,1288.02 657.5,1273C 686.523,1257.82 715.857,1243.15 745.5,1229C 777.587,1214.12 811.254,1208.12 846.5,1211C 857.269,1212.87 867.936,1215.21 878.5,1218C 892.248,1223.04 905.915,1228.37 919.5,1234C 953.039,1252.6 987.372,1269.27 1022.5,1284C 1064.01,1298.84 1105.68,1299.18 1147.5,1285C 1159.66,1280.73 1171.66,1276.06 1183.5,1271C 1213.93,1256.12 1244.59,1241.79 1275.5,1228C 1296.63,1219.2 1318.63,1214.37 1341.5,1213.5 Z"/></g>
<g><path style="opacity:1" fill="#dbb888" d="M 1341.5,1213.5 C 1346.54,1213.17 1351.54,1213.51 1356.5,1214.5C 1356.38,1215.11 1356.04,1215.44 1355.5,1215.5C 1350.83,1214.83 1346.17,1214.17 1341.5,1213.5 Z"/></g>
<g><path style="opacity:1" fill="#bf872b" d="M 815.5,1393.5 C 838.813,1392.43 861.479,1395.59 883.5,1403C 898.781,1408.54 913.781,1414.88 928.5,1422C 955.766,1436.47 983.433,1450.13 1011.5,1463C 1024.75,1468.42 1038.42,1472.42 1052.5,1475C 1020.86,1493.65 988.196,1510.49 954.5,1525.5C 939.96,1518.06 925.293,1510.9 910.5,1504C 872.567,1486.06 832.9,1480.72 791.5,1488C 760.002,1496.61 730.002,1508.95 701.5,1525C 700.167,1525.67 698.833,1525.67 697.5,1525C 664.965,1510.4 633.298,1494.23 602.5,1476.5C 618.554,1472.09 634.22,1466.59 649.5,1460C 677.748,1446.54 705.748,1432.54 733.5,1418C 759.595,1405.24 786.929,1397.08 815.5,1393.5 Z"/></g>
</svg>
