<?xml version="1.0" encoding="UTF-8"?>
<!DOCTYPE svg PUBLIC "-//W3C//DTD SVG 1.1//EN" "http://www.w3.org/Graphics/SVG/1.1/DTD/svg11.dtd">
<svg xmlns="http://www.w3.org/2000/svg" version="1.1" width="300px" height="300px" style="shape-rendering:geometricPrecision; text-rendering:geometricPrecision; image-rendering:optimizeQuality; fill-rule:evenodd; clip-rule:evenodd" xmlns:xlink="http://www.w3.org/1999/xlink">
<g><path style="opacity:1" fill="#fefefe" d="M -0.5,-0.5 C 99.5,-0.5 199.5,-0.5 299.5,-0.5C 299.5,99.5 299.5,199.5 299.5,299.5C 199.5,299.5 99.5,299.5 -0.5,299.5C -0.5,199.5 -0.5,99.5 -0.5,-0.5 Z"/></g>
<g><path style="opacity:1" fill="#b2bbc8" d="M 30.5,110.5 C 29.1667,110.5 27.8333,110.5 26.5,110.5C 26.762,111.978 26.4287,113.311 25.5,114.5C 23.5914,113.652 21.5914,113.318 19.5,113.5C 21.2646,112.539 23.2646,112.205 25.5,112.5C 25.5,111.5 25.5,110.5 25.5,109.5C 27.4147,109.216 29.0813,109.549 30.5,110.5 Z"/></g>
<g><path style="opacity:1" fill="#24395e" d="M 30.5,110.5 C 32.69,111.374 33.69,113.041 33.5,115.5C 39.1375,116.657 44.8042,117.99 50.5,119.5C 51.4415,123.438 53.7748,126.105 57.5,127.5C 57.1773,131.708 58.5106,135.208 61.5,138C 59.9847,141.56 60.318,144.894 62.5,148C 61.7281,154.572 60.7281,161.072 59.5,167.5C 61.4832,167.157 62.8166,167.824 63.5,169.5C 46.83,169.667 30.1633,169.5 13.5,169C 14.7375,168.768 15.7375,168.268 16.5,167.5C 17.2644,165.26 18.0977,162.927 19,160.5C 22.9812,155.684 27.1479,151.018 31.5,146.5C 24.3497,145.625 20.3497,148.958 19.5,156.5C 16.2123,156.927 13.2123,156.26 10.5,154.5C 9.83333,154.833 9.16667,155.167 8.5,155.5C 5.96423,152.801 3.63089,149.968 1.5,147C 4.98548,142.177 8.48548,137.344 12,132.5C 12.6667,130.5 13.3333,128.5 14,126.5C 16.1847,125.072 18.1847,123.405 20,121.5C 20.4298,118.808 20.2631,116.141 19.5,113.5C 21.5914,113.318 23.5914,113.652 25.5,114.5C 26.4287,113.311 26.762,111.978 26.5,110.5C 27.8333,110.5 29.1667,110.5 30.5,110.5 Z"/></g>
<g><path style="opacity:1" fill="#8c99ac" d="M 38.5,119.5 C 37.5,119.5 36.5,119.5 35.5,119.5C 35.7678,121.099 35.4345,122.432 34.5,123.5C 34.5,121.833 34.5,120.167 34.5,118.5C 36.099,118.232 37.4324,118.566 38.5,119.5 Z"/></g>
<g><path style="opacity:1" fill="#f8f9fa" d="M 34.5,123.5 C 35.4345,122.432 35.7678,121.099 35.5,119.5C 36.5,119.5 37.5,119.5 38.5,119.5C 48.3037,122.804 54.4703,129.47 57,139.5C 57.6806,148.523 57.5139,157.523 56.5,166.5C 44.5803,167.479 32.5803,167.812 20.5,167.5C 20.2639,164.774 21.0972,162.441 23,160.5C 30.2803,154.899 35.6136,147.899 39,139.5C 39.4955,137.527 39.6621,135.527 39.5,133.5C 38.5,133.5 37.5,133.5 36.5,133.5C 36.6582,136.545 35.9915,139.379 34.5,142C 30.324,142.681 26.324,142.181 22.5,140.5C 21.4896,145.519 19.1563,149.853 15.5,153.5C 14.9986,151.345 13.9986,149.678 12.5,148.5C 11.5084,148.672 10.8417,148.338 10.5,147.5C 10.5,147.167 10.5,146.833 10.5,146.5C 11.0967,146.265 11.4301,145.765 11.5,145C 10.5705,143.923 9.90384,142.756 9.5,141.5C 12.3517,137.796 14.685,133.796 16.5,129.5C 17.1667,130.833 17.8333,132.167 18.5,133.5C 19.7079,132.766 21.0413,132.433 22.5,132.5C 23.404,131.791 23.7373,130.791 23.5,129.5C 21.8008,129.66 20.1341,129.494 18.5,129C 19.7375,128.768 20.7375,128.268 21.5,127.5C 22.4874,124.287 23.4874,120.953 24.5,117.5C 25.3857,118.325 25.719,119.325 25.5,120.5C 26.8221,120.67 27.9887,120.337 29,119.5C 29.3333,117.833 29.6667,116.167 30,114.5C 31.3919,117.278 31.8919,120.278 31.5,123.5C 32.5,123.5 33.5,123.5 34.5,123.5 Z"/></g>
<g><path style="opacity:1" fill="#b1b9c6" d="M 21.5,127.5 C 20.7375,128.268 19.7375,128.768 18.5,129C 20.1341,129.494 21.8008,129.66 23.5,129.5C 23.7373,130.791 23.404,131.791 22.5,132.5C 21.8166,130.824 20.4832,130.157 18.5,130.5C 18.5,131.5 18.5,132.5 18.5,133.5C 17.8333,132.167 17.1667,130.833 16.5,129.5C 17.6354,127.787 19.302,127.12 21.5,127.5 Z"/></g>
<g><path style="opacity:1" fill="#9aa6b6" d="M 96.5,129.5 C 97.964,128.84 99.6307,128.507 101.5,128.5C 104.486,128.382 107.152,129.048 109.5,130.5C 105.202,129.8 100.869,129.467 96.5,129.5 Z"/></g>
<g><path style="opacity:1" fill="#1b3359" d="M 22.5,132.5 C 21.0413,132.433 19.7079,132.766 18.5,133.5C 18.5,132.5 18.5,131.5 18.5,130.5C 20.4832,130.157 21.8166,130.824 22.5,132.5 Z"/></g>
<g><path style="opacity:1" fill="#1f355b" d="M 96.5,129.5 C 100.869,129.467 105.202,129.8 109.5,130.5C 110.806,133.687 110.806,137.02 109.5,140.5C 108.081,138.664 106.914,136.664 106,134.5C 102.696,132.4 99.1955,132.067 95.5,133.5C 93.8007,137.778 94.4674,141.611 97.5,145C 102.267,147.438 106.767,150.271 111,153.5C 114.499,162.337 111.665,168.171 102.5,171C 90.944,174.257 85.944,170.09 87.5,158.5C 88.5,158.5 89.5,158.5 90.5,158.5C 90.7769,167.222 95.1102,170.389 103.5,168C 106.769,164.547 107.269,160.714 105,156.5C 101.41,153.954 97.5766,151.787 93.5,150C 85.9767,141.654 86.9767,134.82 96.5,129.5 Z"/></g>
<g><path style="opacity:1" fill="#1d345a" d="M 175.5,130.5 C 181.555,129.942 182.888,132.109 179.5,137C 174.791,137.082 173.458,134.915 175.5,130.5 Z"/></g>
<g><path style="opacity:1" fill="#6d7d96" d="M 125.5,143.5 C 122.821,144.226 120.154,145.059 117.5,146C 118.056,146.383 118.389,146.883 118.5,147.5C 116.952,147.179 116.285,146.179 116.5,144.5C 119.067,144.145 121.567,143.479 124,142.5C 124.765,142.57 125.265,142.903 125.5,143.5 Z"/></g>
<g><path style="opacity:1" fill="#1b3258" d="M 125.5,143.5 C 125.351,144.552 125.517,145.552 126,146.5C 131.605,142.322 136.938,142.655 142,147.5C 146.31,162.214 140.81,169.881 125.5,170.5C 125.334,174.846 125.501,179.179 126,183.5C 127.356,184.38 128.856,184.714 130.5,184.5C 125.944,186.442 120.944,187.108 115.5,186.5C 116.183,184.824 117.517,184.157 119.5,184.5C 119.829,171.989 119.495,159.655 118.5,147.5C 118.389,146.883 118.056,146.383 117.5,146C 120.154,145.059 122.821,144.226 125.5,143.5 Z"/></g>
<g><path style="opacity:1" fill="#1c3359" d="M 162.5,143.5 C 165.567,143.016 167.567,144.182 168.5,147C 168.275,148.621 167.442,149.788 166,150.5C 162.451,147.459 159.784,148.126 158,152.5C 157.333,157.167 157.333,161.833 158,166.5C 159.204,167.859 160.704,168.859 162.5,169.5C 157.88,170.493 153.214,170.827 148.5,170.5C 148.5,169.5 148.5,168.5 148.5,167.5C 149.822,167.67 150.989,167.337 152,166.5C 152.667,160.5 152.667,154.5 152,148.5C 150.989,147.663 149.822,147.33 148.5,147.5C 148.5,146.5 148.5,145.5 148.5,144.5C 151.5,144.5 154.5,144.5 157.5,144.5C 157.34,146.199 157.506,147.866 158,149.5C 159.332,147.34 160.832,145.34 162.5,143.5 Z"/></g>
<g><path style="opacity:1" fill="#939fb1" d="M 175.5,144.5 C 174.602,145.158 173.602,145.824 172.5,146.5C 173.243,147.182 173.909,147.849 174.5,148.5C 173.5,148.5 172.5,148.5 171.5,148.5C 171.5,147.167 171.5,145.833 171.5,144.5C 172.833,144.5 174.167,144.5 175.5,144.5 Z"/></g>
<g><path style="opacity:1" fill="#172f56" d="M 175.5,144.5 C 176.167,144.5 176.833,144.5 177.5,144.5C 178.5,144.5 179.5,144.5 180.5,144.5C 180.175,152.019 180.508,159.352 181.5,166.5C 182.5,167.167 183.5,167.833 184.5,168.5C 180.366,169.485 176.032,169.818 171.5,169.5C 172.105,167.974 173.271,166.974 175,166.5C 175.819,160.319 175.653,154.319 174.5,148.5C 173.909,147.849 173.243,147.182 172.5,146.5C 173.602,145.824 174.602,145.158 175.5,144.5 Z"/></g>
<g><path style="opacity:1" fill="#72829a" d="M 177.5,144.5 C 178.568,143.566 179.901,143.232 181.5,143.5C 181.5,151.167 181.5,158.833 181.5,166.5C 180.508,159.352 180.175,152.019 180.5,144.5C 179.5,144.5 178.5,144.5 177.5,144.5 Z"/></g>
<g><path style="opacity:1" fill="#8896a9" d="M 194.5,144.5 C 195.568,143.566 196.901,143.232 198.5,143.5C 198.263,144.791 198.596,145.791 199.5,146.5C 199.44,147.043 199.107,147.376 198.5,147.5C 197.614,146.675 197.281,145.675 197.5,144.5C 196.5,144.5 195.5,144.5 194.5,144.5 Z"/></g>
<g><path style="opacity:1" fill="#5a6c87" d="M 209.5,144.5 C 206.763,144.401 204.096,144.735 201.5,145.5C 202.492,143.974 203.992,143.307 206,143.5C 207.385,143.514 208.551,143.848 209.5,144.5 Z"/></g>
<g><path style="opacity:1" fill="#183057" d="M 194.5,144.5 C 195.5,144.5 196.5,144.5 197.5,144.5C 197.281,145.675 197.614,146.675 198.5,147.5C 199.107,147.376 199.44,147.043 199.5,146.5C 199.842,145.662 200.508,145.328 201.5,145.5C 204.096,144.735 206.763,144.401 209.5,144.5C 211.752,144.916 213.252,146.249 214,148.5C 214.172,155.013 214.672,161.347 215.5,167.5C 215.918,168.222 216.584,168.722 217.5,169C 213.514,169.499 209.514,169.666 205.5,169.5C 206.209,168.596 207.209,168.263 208.5,168.5C 208.666,162.158 208.5,155.825 208,149.5C 204.381,146.657 201.048,146.99 198,150.5C 197.215,156.249 197.382,161.916 198.5,167.5C 198.918,168.222 199.584,168.722 200.5,169C 196.514,169.499 192.514,169.666 188.5,169.5C 189.105,167.974 190.271,166.974 192,166.5C 192.667,160.5 192.667,154.5 192,148.5C 190.294,147.692 189.461,146.359 189.5,144.5C 191.167,144.5 192.833,144.5 194.5,144.5 Z"/></g>
<g><path style="opacity:1" fill="#23385d" d="M 291.5,170.5 C 286.786,170.827 282.12,170.493 277.5,169.5C 278.243,168.818 278.909,168.151 279.5,167.5C 280.491,161.021 280.824,154.354 280.5,147.5C 279.5,147.5 278.5,147.5 277.5,147.5C 277.5,146.5 277.5,145.5 277.5,144.5C 280.5,144.5 283.5,144.5 286.5,144.5C 286.34,146.199 286.506,147.866 287,149.5C 288.796,144.812 291.963,143.145 296.5,144.5C 297.952,146.979 297.452,148.979 295,150.5C 291.451,147.459 288.784,148.126 287,152.5C 286.333,157.167 286.333,161.833 287,166.5C 288.698,167.741 290.198,169.074 291.5,170.5 Z"/></g>
<g><path style="opacity:1" fill="#c5cbd5" d="M 9.5,141.5 C 9.90384,142.756 10.5705,143.923 11.5,145C 11.4301,145.765 11.0967,146.265 10.5,146.5C 10.1541,144.295 9.4874,144.128 8.5,146C 8.83611,147.03 9.50278,147.53 10.5,147.5C 10.8417,148.338 11.5084,148.672 12.5,148.5C 10.4858,152.439 8.3191,152.439 6,148.5C 5.99102,145.65 7.15769,143.317 9.5,141.5 Z"/></g>
<g><path style="opacity:1" fill="#183258" d="M 10.5,146.5 C 10.5,146.833 10.5,147.167 10.5,147.5C 9.50278,147.53 8.83611,147.03 8.5,146C 9.4874,144.128 10.1541,144.295 10.5,146.5 Z"/></g>
<g><path style="opacity:1" fill="#20365c" d="M 259.5,143.5 C 266.827,142.511 271.493,145.511 273.5,152.5C 273.392,153.442 273.059,154.275 272.5,155C 267.177,155.499 261.844,155.666 256.5,155.5C 257.254,165.454 262.088,168.454 271,164.5C 271.5,164.833 272,165.167 272.5,165.5C 269.972,169.192 266.472,170.858 262,170.5C 257.56,171.389 254.56,169.722 253,165.5C 249.405,156.336 251.572,149.003 259.5,143.5 Z"/></g>
<g><path style="opacity:1" fill="#e7eaee" d="M 259.5,146.5 C 265.284,145.284 267.951,147.618 267.5,153.5C 264.167,153.5 260.833,153.5 257.5,153.5C 257.394,150.921 258.061,148.588 259.5,146.5 Z"/></g>
<g><path style="opacity:1" fill="#f2f3f5" d="M 127.5,147.5 C 136.135,147.366 139.635,151.7 138,160.5C 136.471,167.288 132.471,169.288 126,166.5C 124.943,159.886 125.443,153.553 127.5,147.5 Z"/></g>
<g><path style="opacity:1" fill="#20365c" d="M 241.5,186.5 C 236.993,188.113 232.327,188.779 227.5,188.5C 219.996,183.934 219.662,178.767 226.5,173C 221.026,169.088 221.359,165.754 227.5,163C 220.32,155.765 220.986,149.431 229.5,144C 235.878,143.686 242.211,144.186 248.5,145.5C 247.176,146.935 245.51,147.935 243.5,148.5C 245.289,158.559 240.956,163.725 230.5,164C 229.62,165.356 229.286,166.856 229.5,168.5C 234.179,168.334 238.845,168.501 243.5,169C 247.277,171.911 248.444,175.744 247,180.5C 245.64,183.023 243.807,185.023 241.5,186.5 Z"/></g>
<g><path style="opacity:1" fill="#f0f1f4" d="M 230.5,146.5 C 233.365,146.055 235.865,146.722 238,148.5C 238.667,151.833 238.667,155.167 238,158.5C 233.641,161.758 230.641,160.758 229,155.5C 228.207,152.259 228.707,149.259 230.5,146.5 Z"/></g>
<g><path style="opacity:1" fill="#546783" d="M 56.5,166.5 C 50.8725,167.829 44.8725,168.496 38.5,168.5C 32.3238,168.5 26.3238,168.166 20.5,167.5C 32.5803,167.812 44.5803,167.479 56.5,166.5 Z"/></g>
<g><path style="opacity:1" fill="#3e5474" d="M 16.5,167.5 C 15.7375,168.268 14.7375,168.768 13.5,169C 30.1633,169.5 46.83,169.667 63.5,169.5C 46.6749,170.497 29.6749,170.83 12.5,170.5C 12.5,169.5 12.5,168.5 12.5,167.5C 13.8333,167.5 15.1667,167.5 16.5,167.5 Z"/></g>
<g><path style="opacity:1" fill="#526683" d="M 184.5,168.5 C 185.043,168.56 185.376,168.893 185.5,169.5C 180.682,170.812 176.015,170.812 171.5,169.5C 176.032,169.818 180.366,169.485 184.5,168.5 Z"/></g>
<g><path style="opacity:1" fill="#576a86" d="M 198.5,167.5 C 199.5,167.5 200.5,167.5 201.5,167.5C 201.5,168.5 201.5,169.5 201.5,170.5C 196.968,170.818 192.634,170.485 188.5,169.5C 192.514,169.666 196.514,169.499 200.5,169C 199.584,168.722 198.918,168.222 198.5,167.5 Z"/></g>
<g><path style="opacity:1" fill="#596b87" d="M 215.5,167.5 C 216.5,167.5 217.5,167.5 218.5,167.5C 218.5,168.5 218.5,169.5 218.5,170.5C 213.968,170.818 209.634,170.485 205.5,169.5C 209.514,169.666 213.514,169.499 217.5,169C 216.584,168.722 215.918,168.222 215.5,167.5 Z"/></g>
<g><path style="opacity:1" fill="#bcc4cf" d="M 279.5,167.5 C 278.909,168.151 278.243,168.818 277.5,169.5C 282.12,170.493 286.786,170.827 291.5,170.5C 286.695,171.487 281.695,171.821 276.5,171.5C 276.5,170.167 276.5,168.833 276.5,167.5C 277.5,167.5 278.5,167.5 279.5,167.5 Z"/></g>
<g><path style="opacity:1" fill="#f0f2f4" d="M 229.5,173.5 C 233.514,173.334 237.514,173.501 241.5,174C 244.366,178.221 243.699,181.888 239.5,185C 233.061,187.172 228.728,185.172 226.5,179C 227.124,176.915 228.124,175.082 229.5,173.5 Z"/></g>
<g><path style="opacity:1" fill="#f26716" d="M 63.5,181.5 C 63.5,182.833 63.5,184.167 63.5,185.5C 46.8333,185.5 30.1667,185.5 13.5,185.5C 13.5,184.167 13.5,182.833 13.5,181.5C 30.1667,181.5 46.8333,181.5 63.5,181.5 Z"/></g>
<g><path style="opacity:1" fill="#f58444" d="M 63.5,181.5 C 46.8333,181.5 30.1667,181.5 13.5,181.5C 13.5,182.833 13.5,184.167 13.5,185.5C 30.1667,185.5 46.8333,185.5 63.5,185.5C 46.6749,186.497 29.6749,186.83 12.5,186.5C 12.5,184.5 12.5,182.5 12.5,180.5C 29.6749,180.17 46.6749,180.503 63.5,181.5 Z"/></g>
<g><path style="opacity:1" fill="#94a1b2" d="M 130.5,184.5 C 131.404,185.209 131.737,186.209 131.5,187.5C 125.974,187.821 120.64,187.488 115.5,186.5C 120.944,187.108 125.944,186.442 130.5,184.5 Z"/></g>
<g><path style="opacity:1" fill="#a5afbd" d="M 241.5,186.5 C 240.653,187.966 239.32,188.8 237.5,189C 233.973,189.808 230.64,189.641 227.5,188.5C 232.327,188.779 236.993,188.113 241.5,186.5 Z"/></g>
</svg>
