<?xml version="1.0" standalone="no"?>
<!DOCTYPE svg PUBLIC "-//W3C//DTD SVG 20010904//EN"
 "http://www.w3.org/TR/2001/REC-SVG-20010904/DTD/svg10.dtd">
<svg version="1.0" xmlns="http://www.w3.org/2000/svg"
 width="200.000000pt" height="200.000000pt" viewBox="0 0 200.000000 200.000000"
 preserveAspectRatio="xMidYMid meet">
<metadata>
Created by potrace 1.16, written by Peter Selinger 2001-2019
</metadata>
<g transform="translate(0.000000,200.000000) scale(0.100000,-0.100000)"
fill="#000000" stroke="none">
<path d="M865 1989 c-376 -50 -703 -327 -818 -695 -145 -461 73 -970 508
-1184 399 -197 855 -117 1162 203 325 339 371 854 113 1238 -60 88 -189 219
-271 274 -199 133 -462 195 -694 164z m390 -39 c164 -45 312 -130 431 -249
182 -180 279 -396 291 -643 l6 -118 -102 0 -101 0 0 48 c-1 129 -48 302 -111
409 -44 74 -159 195 -233 245 -107 73 -228 117 -368 133 l-57 7 25 27 c30 32
38 61 30 104 -5 25 -4 29 6 19 8 -8 13 -35 12 -64 l-1 -52 16 32 c13 29 13 35
-2 68 -20 41 -43 40 -40 -1 2 -30 -23 -95 -37 -95 -12 0 -7 134 5 142 6 4 -3
8 -20 8 -16 0 -25 -4 -20 -8 6 -4 8 -36 5 -77 l-5 -70 -18 34 c-12 21 -17 44
-13 62 7 37 -12 48 -36 19 -21 -27 -23 -69 -4 -95 13 -18 14 -15 9 25 -3 30 0
51 10 64 13 18 14 15 10 -30 -4 -44 -1 -52 26 -80 l30 -32 -62 -6 c-108 -12
-189 -35 -282 -81 -159 -77 -273 -192 -350 -350 -55 -113 -74 -184 -82 -307
l-6 -98 -100 0 -100 0 6 123 c6 147 29 233 97 372 131 269 380 463 680 530 99
22 351 14 455 -15z m-20 -224 c116 -39 209 -98 301 -190 147 -147 223 -326
224 -523 l0 -83 111 0 110 0 -7 -57 c-9 -76 -47 -208 -83 -287 -94 -207 -311
-415 -517 -494 -155 -59 -195 -67 -374 -67 -186 0 -269 16 -407 80 -307 142
-533 445 -569 764 l-7 60 109 3 109 3 6 110 c8 125 32 216 86 315 103 191 272
322 488 381 107 29 311 22 420 -15z"/>
<path d="M983 1715 c-108 -33 -179 -105 -203 -205 -7 -28 -18 -50 -25 -50 -37
0 -49 77 -21 144 17 40 10 44 -37 20 -81 -41 -147 -144 -147 -229 0 -69 -36
-30 -47 50 l-6 46 -34 -32 c-67 -66 -91 -156 -57 -220 14 -28 18 -30 47 -22
52 13 139 8 175 -10 32 -15 35 -15 60 1 35 23 129 23 165 0 23 -16 29 -16 61
-3 45 19 117 19 162 0 32 -13 39 -13 67 2 39 20 121 20 167 1 30 -13 40 -13
69 -1 45 19 129 18 174 0 25 -11 38 -12 46 -4 19 19 12 89 -14 132 -18 28 -25
55 -25 89 0 47 0 48 -27 42 -34 -8 -62 -40 -70 -77 -5 -27 -6 -27 -79 44 -91
88 -103 118 -75 183 l21 47 -42 -7 c-74 -12 -125 -65 -153 -160 l-12 -39 -36
36 c-61 62 -59 121 9 215 16 22 16 22 -27 21 -24 0 -63 -6 -86 -14z"/>
<path d="M500 1170 c-225 -43 -269 -346 -65 -446 49 -24 62 -26 122 -20 38 4
84 6 103 5 19 0 68 -1 108 -1 75 0 105 0 222 0 39 0 88 0 110 0 89 0 192 1
223 2 17 1 60 -2 93 -5 77 -9 123 5 176 53 128 116 108 305 -41 386 -56 30
-141 37 -195 16 -21 -8 -38 -8 -62 0 -43 14 -121 15 -158 1 -21 -9 -38 -9 -63
0 -22 7 -62 9 -106 5 -90 -8 -97 -8 -179 0 -41 4 -80 2 -99 -5 -22 -7 -43 -8
-63 -2 -50 15 -89 18 -126 11z m109 -36 c11 -3 6 -13 -17 -37 -42 -43 -62 -95
-62 -162 0 -66 16 -108 59 -157 36 -42 30 -48 -50 -48 -162 0 -261 181 -173
317 53 81 150 116 243 87z m930 -13 c35 -19 90 -91 102 -133 34 -126 -68 -258
-200 -258 -80 0 -86 6 -48 51 79 91 76 232 -5 316 -33 34 -31 38 22 45 31 4
104 -8 129 -21z m-845 -45 c35 -36 56 -93 56 -148 0 -44 -44 -132 -76 -153
-25 -16 -27 -16 -51 7 -58 53 -81 173 -47 241 19 37 63 87 77 87 5 0 24 -15
41 -34z m218 7 c41 -44 58 -88 58 -148 0 -32 -7 -70 -16 -88 -17 -33 -63 -87
-75 -87 -14 0 -63 57 -80 95 -25 54 -23 110 5 171 21 44 57 84 76 84 4 0 18
-12 32 -27z m224 2 c81 -81 83 -204 4 -289 l-38 -41 -27 25 c-60 56 -85 158
-56 231 11 31 69 99 82 99 6 0 21 -11 35 -25z m232 -9 c61 -69 69 -179 19
-255 -37 -56 -58 -66 -90 -41 -57 45 -84 161 -54 233 18 41 65 97 82 97 7 0
26 -15 43 -34z"/>
<path d="M94 755 c21 -85 103 -194 181 -242 18 -10 16 -12 -18 -12 -23 -1 -36
-5 -32 -11 4 -6 118 -10 311 -10 189 0 304 -4 304 -10 0 -15 61 -80 75 -80 7
0 16 -13 20 -29 3 -16 13 -35 21 -42 9 -7 14 -30 14 -60 0 -27 5 -49 10 -49 6
0 10 37 10 91 0 68 3 90 13 87 8 -3 13 -33 15 -91 3 -90 22 -123 22 -39 0 26
7 56 15 66 8 11 15 28 15 37 0 10 15 26 32 37 18 12 41 34 51 51 l18 31 305 0
c196 0 304 4 304 10 0 6 -13 10 -30 10 -39 0 -38 14 0 30 59 24 160 170 160
230 0 20 -4 18 -42 -15 -110 -93 -216 -116 -443 -93 -231 24 -355 12 -395 -39
-20 -26 -38 -30 -46 -8 -3 8 -25 23 -47 34 -57 27 -169 32 -342 14 -259 -26
-329 -9 -494 121 -12 9 -13 6 -7 -19z m806 -184 c14 -10 31 -30 38 -44 12 -24
19 -27 66 -27 50 0 54 2 66 30 17 41 63 63 131 63 44 0 74 -8 140 -38 46 -21
88 -42 93 -47 6 -4 -56 -8 -136 -8 l-146 0 -12 -31 c-12 -27 -56 -68 -63 -58
-2 2 -8 17 -15 32 -11 26 -16 28 -59 25 -41 -3 -50 -7 -61 -31 -11 -23 -16
-26 -33 -16 -11 5 -29 25 -39 42 l-20 32 -142 5 -143 5 74 38 c110 57 206 68
261 28z"/>
</g>
</svg>
